<svg xmlns="http://www.w3.org/2000/svg" xmlns:xlink="http://www.w3.org/1999/xlink" version="1.1" x="0px" y="0px" width="100px" height="100px" viewBox="0 0 100 100" enable-background="new 0 0 100 100" xml:space="preserve">
<g id="Captions">
	<rect x="-192" width="185" height="99"/>
	<rect y="-36" width="100" height="30"/>
	<text transform="matrix(1 0 0 1 66 -19.5)" fill="#000000" font-family="'Helvetica'" font-size="2.4">http://thenounproject.com</text>
	<text transform="matrix(1 0 0 1 7.166 -24.5)"><tspan x="0" y="0" fill="#000000" font-family="'Helvetica-Bold'" font-size="6.1578">The Noun Project</tspan><tspan x="1.12" y="4.8" fill="#000000" font-family="'Helvetica-Bold'" font-size="4">Icon Template</tspan></text>
	<text transform="matrix(1 0 0 1 -178.5 10.5)" fill="#000000" font-family="'Helvetica-Bold'" font-size="6.1578">Reminders</text>
	<line fill="#000000" stroke="#FFFFFF" stroke-miterlimit="10" x1="8" y1="-14.5" x2="18" y2="-14.5"/>
	<line fill="#000000" stroke="#FFFFFF" stroke-miterlimit="10" x1="-179" y1="16.5" x2="-162" y2="16.5"/>
	<g>
		<g>
			<g>
				<rect x="-170.802" y="31.318" fill="#000000" width="8.721" height="8.642"/>
				<path fill="#000000" d="M-164.455,42.312h4.747v-4.703h-4.747V42.312z M-159.266,42.749h-5.63V37.17h5.63V42.749      L-159.266,42.749z M-166.221,44.062h8.279v-8.203h-8.279V44.062L-166.221,44.062z M-157.5,44.5h-9.163v-9.079h9.163V44.5      L-157.5,44.5z"/>
				<polygon fill="#000000" points="-166.149,44.133 -166.292,43.991 -158.013,35.787 -157.871,35.929     "/>
			</g>
		</g>
	</g>
	<rect x="-179" y="58" fill="none" width="35" height="32.5"/>
	<text transform="matrix(1 0 0 1 -179 60.1572)"><tspan x="0" y="0" fill="#000000" font-family="'Helvetica-Bold'" font-size="3">Strokes</tspan><tspan x="0" y="5" fill="#000000" font-family="'Helvetica'" font-size="2.4">Try to keep strokes at 4px</tspan><tspan x="0" y="10" fill="#000000" font-family="'Helvetica'" font-size="2.4">Minimum stroke weight is 2px</tspan><tspan x="0" y="14.5" fill="#000000" font-family="'Helvetica'" font-size="2.4">For thicker strokes use even </tspan><tspan x="0" y="17.5" fill="#000000" font-family="'Helvetica'" font-size="2.4">numbers: 6px, 8px etc.</tspan><tspan x="0" y="22" fill="#000000" font-family="'Helvetica-Bold'" font-size="2.4">Remember to expand strokes </tspan><tspan x="0" y="25" fill="#000000" font-family="'Helvetica-Bold'" font-size="2.4">before saving as an SVG </tspan></text>
	<rect x="-136.5" y="58" fill="none" width="35" height="32.5"/>
	<text transform="matrix(1 0 0 1 -136.5 60.1572)"><tspan x="0" y="0" fill="#000000" font-family="'Helvetica-Bold'" font-size="3">Size</tspan><tspan x="0" y="5" fill="#000000" font-family="'Helvetica'" font-size="2.4">Cannot be wider or taller than </tspan><tspan x="0" y="8.5" fill="#000000" font-family="'Helvetica'" font-size="2.4">100px (artboard size)</tspan><tspan x="0" y="13.5" fill="#000000" font-family="'Helvetica'" font-size="2.4">Scale your icon to fill as much of </tspan><tspan x="0" y="16.5" fill="#000000" font-family="'Helvetica'" font-size="2.4">the artboard as possible</tspan></text>
	<rect x="-94" y="58" fill="none" width="35" height="32.5"/>
	<text transform="matrix(1 0 0 1 -94 60.1572)"><tspan x="0" y="0" fill="#000000" font-family="'Helvetica-Bold'" font-size="3">Ungroup</tspan><tspan x="0" y="5" fill="#000000" font-family="'Helvetica'" font-size="2.4">If your design has more than one </tspan><tspan x="0" y="8" fill="#000000" font-family="'Helvetica'" font-size="2.4">shape, make sure to ungroup</tspan></text>
	<rect x="-50" y="58" fill="none" width="35" height="32.5"/>
	<text transform="matrix(1 0 0 1 -50 60.1572)"><tspan x="0" y="0" fill="#000000" font-family="'Helvetica-Bold'" font-size="3">Save as</tspan><tspan x="0" y="5" fill="#000000" font-family="'Helvetica'" font-size="2.4">Save as .SVG and make sure </tspan><tspan x="0" y="8" fill="#000000" font-family="'Helvetica'" font-size="2.4">&#8220;Use Artboards&#8221; is checked</tspan></text>
	<text transform="matrix(1.0074 0 0 1 -125.542 30.5933)" fill="#000000" font-family="'Helvetica'" font-size="2.5731">100px</text>
	<text transform="matrix(1.0074 0 0 1 -41 39)" fill="#000000" font-family="'Helvetica-Bold'" font-size="5.1462">.SVG</text>
	<rect x="-126.514" y="34.815" fill="#000000" width="10.261" height="10.185"/>
	<rect x="-126.477" y="31.766" fill="#000000" width="0.522" height="2.337"/>
	<rect x="-116.812" y="31.766" fill="#000000" width="0.523" height="2.337"/>
	<rect x="-127" y="32.337" fill="#000000" width="11.233" height="0.572"/>
	<g>
		<rect x="-83.805" y="33.844" fill="#000000" width="10.305" height="10.156"/>
		<rect x="-76.809" y="28.707" fill="#000000" width="3.308" height="3.261"/>
	</g>
	<rect x="-178.5" y="22.5" fill="#000000" stroke="#FFFFFF" stroke-miterlimit="10" width="30" height="30"/>
	<rect x="-136.5" y="22.5" fill="#000000" stroke="#FFFFFF" stroke-miterlimit="10" width="30" height="30"/>
	<rect x="-93.5" y="22.5" fill="#000000" stroke="#FFFFFF" stroke-miterlimit="10" width="30" height="30"/>
	<rect x="-49.5" y="22.5" fill="#000000" stroke="#FFFFFF" stroke-miterlimit="10" width="30" height="30"/>
</g>
<g id="Your_Icon">
	<path d="M86.1,79.833H26.516c-1.242,0-2.25-1.008-2.25-2.25V30.734c0-1.242,1.008-2.25,2.25-2.25H86.1   c1.242,0,2.25,1.008,2.25,2.25v46.849C88.35,78.825,87.342,79.833,86.1,79.833z M28.766,75.333H83.85V32.984H28.766V75.333z"/>
	<path d="M78.342,32.984c-0.926,0-1.793-0.577-2.121-1.5l-2.227-6.287l-25.508,7.689c-1.185,0.369-2.444-0.312-2.803-1.503   c-0.358-1.188,0.314-2.446,1.506-2.804l27.561-8.312c1.141-0.359,2.367,0.271,2.771,1.403l2.94,8.312   c0.416,1.173-0.198,2.455-1.371,2.871C78.846,32.943,78.591,32.984,78.342,32.984z"/>
	<path d="M26.516,79.833c-0.921,0-1.786-0.567-2.117-1.485L11.784,43.396c-0.205-0.571-0.173-1.201,0.092-1.746   c0.264-0.545,0.737-0.961,1.311-1.151l12.615-4.213c1.184-0.39,2.454,0.239,2.848,1.421c0.394,1.178-0.243,2.452-1.421,2.845   l-10.43,3.483l11.833,32.783c0.422,1.17-0.185,2.459-1.354,2.881C27.027,79.789,26.769,79.833,26.516,79.833z"/>
	<path d="M77.094,60.736H60.746c-1.242,0-2.25-1.008-2.25-2.25V40.469c0-1.242,1.008-2.25,2.25-2.25h16.348   c1.242,0,2.25,1.008,2.25,2.25v18.018C79.344,59.729,78.336,60.736,77.094,60.736z M62.996,56.236h11.848V42.719H62.996V56.236z"/>
	<path d="M51.623,42.719H36.242c-1.242,0-2.25-1.008-2.25-2.25s1.008-2.25,2.25-2.25h15.381c1.242,0,2.25,1.008,2.25,2.25   S52.865,42.719,51.623,42.719z"/>
	<path d="M51.623,51.695H36.242c-1.242,0-2.25-1.008-2.25-2.25c0-1.241,1.008-2.25,2.25-2.25h15.381c1.242,0,2.25,1.009,2.25,2.25   C53.873,50.688,52.865,51.695,51.623,51.695z"/>
	<path d="M51.623,60.68H36.242c-1.242,0-2.25-1.009-2.25-2.25c0-1.242,1.008-2.25,2.25-2.25h15.381c1.242,0,2.25,1.008,2.25,2.25   C53.873,59.671,52.865,60.68,51.623,60.68z"/>
	<path d="M77.094,69.661H36.242c-1.242,0-2.25-1.009-2.25-2.25c0-1.242,1.008-2.25,2.25-2.25h40.852c1.242,0,2.25,1.008,2.25,2.25   C79.344,68.652,78.336,69.661,77.094,69.661z"/>
</g>
</svg>