<svg xmlns="http://www.w3.org/2000/svg" xmlns:xlink="http://www.w3.org/1999/xlink" version="1.1" id="Layer_1" x="0px" y="0px" width="100px" height="100px" viewBox="0 0 100 100" enable-background="new 0 0 100 100" xml:space="preserve">
<path fill-rule="evenodd" clip-rule="evenodd" d="M94.308,39.842l-11.933-11.76V11.186c0-2.952-2.393-5.345-5.344-5.345h-1.63  c-2.952,0-5.345,2.393-5.345,5.345v4.756L57.952,4.012C56.34,1.609,53.387,0,50.011,0c-3.45,0-6.459,1.678-8.046,4.165L6.248,39.382  c-1.934,1.504-3.154,3.713-3.154,6.175c0,4.418,3.934,8.026,8.858,8.205l0.381,0.001h4.114v37.204c0,4.989,4.044,9.033,9.033,9.033  h14.098V65.834h21.198V100h14.098c4.989,0,9.033-4.044,9.033-9.033V53.762h3.761c5.103,0,9.238-3.674,9.238-8.206  C96.906,43.337,95.918,41.318,94.308,39.842z"/>
</svg>