<?xml version="1.0" encoding="UTF-8" standalone="no"?>
<svg
   xmlns:dc="http://purl.org/dc/elements/1.1/"
   xmlns:cc="http://creativecommons.org/ns#"
   xmlns:rdf="http://www.w3.org/1999/02/22-rdf-syntax-ns#"
   xmlns:svg="http://www.w3.org/2000/svg"
   xmlns="http://www.w3.org/2000/svg"
   xmlns:sodipodi="http://sodipodi.sourceforge.net/DTD/sodipodi-0.dtd"
   xmlns:inkscape="http://www.inkscape.org/namespaces/inkscape"
   version="1.1"
   id="Layer_1"
   x="0px"
   y="0px"
   width="80px"
   height="100px"
   viewBox="-143.56 -47.164 80 100"
   enable-background="new -143.56 -47.164 80 100"
   xml:space="preserve"
   inkscape:version="0.48.2 r9819"
   sodipodi:docname="lock.svg"><metadata
   id="metadata9"><rdf:RDF><cc:Work
       rdf:about=""><dc:format>image/svg+xml</dc:format><dc:type
         rdf:resource="http://purl.org/dc/dcmitype/StillImage" /></cc:Work></rdf:RDF></metadata><defs
   id="defs7"><inkscape:perspective
     sodipodi:type="inkscape:persp3d"
     inkscape:vp_x="0 : 50 : 1"
     inkscape:vp_y="0 : 1000 : 0"
     inkscape:vp_z="80 : 50 : 1"
     inkscape:persp3d-origin="40 : 33.333333 : 1"
     id="perspective2988" /></defs><sodipodi:namedview
   pagecolor="#ffffff"
   bordercolor="#666666"
   borderopacity="1"
   objecttolerance="10"
   gridtolerance="10"
   guidetolerance="10"
   inkscape:pageopacity="0"
   inkscape:pageshadow="2"
   inkscape:window-width="1440"
   inkscape:window-height="877"
   id="namedview5"
   showgrid="false"
   inkscape:zoom="13.350176"
   inkscape:cx="42.552919"
   inkscape:cy="47.57089"
   inkscape:window-x="-8"
   inkscape:window-y="-8"
   inkscape:window-maximized="1"
   inkscape:current-layer="Layer_1" />
<path
   d="m -71.790568,-3.7426345 c -1.197,0 -1.927,0 -1.927,0 l 0,-15.6519995 c -0.096,-19.194 -13.192,-29.642 -29.098992,-29.642 -15.90901,0 -30.17201,10.945 -29.67601,29.642 l -0.018,15.6349995 c 0,0 0.241,0.018 -0.961,0.018 -1.266,0 -9.639,1.4749999 -9.639,8.9379995 l 0,35.820001 c 0,7.959 9.421,9.947 9.639,9.947 16.761,0 44.439002,0 61.204002,0 0.221,0 9.157,-0.991 9.157,-9.947 l 0,-35.325001 c 0,-8.4569996 -8.458,-9.4339995 -8.68,-9.4339995 z m -24.172,40.9240005 -14.268002,0 2.96001,-14.566 c -2.12,-1.411 -3.52801,-3.867 -3.52801,-6.666 0,-4.38 3.44301,-7.937001 7.68801,-7.937001 4.243992,0 7.686992,3.557001 7.686992,7.937001 0,2.797 -1.407,5.251 -3.526,6.664 z m -23.072002,-40.9240005 0.019,-15.4429995 c 0,-9.949 6.07,-17.907 15.90601,-17.907 9.739992,0 15.903992,6.963 15.903992,17.907 l 0.008,15.4429995 z"
   id="path3"
   inkscape:connector-curvature="0"
   sodipodi:nodetypes="sccsccsssssssscccsssccccsccc" />
</svg>