<svg xmlns="http://www.w3.org/2000/svg" xmlns:xlink="http://www.w3.org/1999/xlink" version="1.1" x="0px" y="0px" width="100px" height="100px" viewBox="0 0 100 100" enable-background="new 0 0 100 100" xml:space="preserve">
<g id="Captions">
</g>
<g id="Broccoli">
</g>
<g id="Mobile">
</g>
<g id="Exclamation">
</g>
<g id="News">
</g>
<g id="Video">
</g>
<g id="Rainbow">
</g>
<g id="Glassboard">
	<path fill="#000000" d="M90.875,43.063c0,16.12-18.104,29.188-40.438,29.188c-0.481,0-0.961-0.006-1.438-0.019   C47.352,72.19,32.717,87.431,31.125,87.25c-2.236-0.253,8.6-15.99,6.501-16.495C21.572,66.888,10,55.951,10,43.063   c0-16.12,18.104-29.188,40.438-29.188S90.875,26.942,90.875,43.063z M63,55.908v-13.55C63,41.618,62.138,41,61.396,41H60v-5.724   c0-5.001-4-9.056-9-9.056c-5.002,0-9,4.055-9,9.056V41h-1.396C39.862,41,39,41.618,39,42.358v13.55C39,56.649,39.862,57,40.604,57   h20.793C62.138,57,63,56.649,63,55.908z M56,35.544V41H46v-5.456c0-2.646,2.354-4.792,5-4.792S56,32.897,56,35.544L56,35.544z"/>
</g>
<g id="Lightbulb">
</g>
<g id="Network">
</g>
<g id="Money">
</g>
<g id="Layer_12">
</g>
</svg>